<mxfile host="app.diagrams.net" modified="2024-03-01T14:09:09.624Z" agent="Mozilla/5.0 (Windows NT 10.0; Win64; x64) AppleWebKit/537.36 (KHTML, like Gecko) Chrome/98.0.4758.139 Safari/537.36" version="24.0.0" etag="Re_Q8Hr4tDaNjMJKEBKr" type="github">
  <diagram name="第 1 页" id="WEld8vFueoziVgkbEkIy">
    <mxGraphModel>
      <root>
        <mxCell id="0" />
        <mxCell id="1" parent="0" />
      </root>
    </mxGraphModel>
  </diagram>
</mxfile>
